<?xml version="1.0" encoding="utf-8"?>
<!-- Generator: Adobe Illustrator 28.0.0, SVG Export Plug-In . SVG Version: 6.00 Build 0)  -->
<svg version="1.1" id="Layer_1" xmlns="http://www.w3.org/2000/svg" xmlns:xlink="http://www.w3.org/1999/xlink" x="0px" y="0px"
	 viewBox="0 0 1594.56 1366.75" style="enable-background:new 0 0 1594.56 1366.75;" xml:space="preserve">
<style type="text/css">
	.st0{fill:#6DB9EF;stroke:#000000;stroke-width:9.8483;stroke-miterlimit:10;}
</style>
<path class="st0" d="M882.2,31.63c-12.12,82.14-86.56,143.52-165.99,167.7s-164.31,18.99-247.32,17.44
	c-83.01-1.55-169.51,1.62-243.08,40.1C136.47,303.6,77.28,402.91,78.66,503.72c1.39,100.81,63.29,198.45,153.88,242.7
	c64.13,31.33,137.66,36.5,205.45,58.82c67.79,22.32,135.99,71.83,143.18,142.84c3.72,36.74-9.66,73.02-11.17,109.91
	c-4.03,99.39,81.25,184.66,176.21,214.26c94.96,29.6,197.34,16.37,295.79,2.26c98.47-14.1,200.41-28.6,296.07-1.3"/>
</svg>
